M48
METRIC
T1C0.700
T2C0.800
T3C0.950
T4C1.000
T5C1.300
%
G90
G05
T1
X77.724Y-98.552
X80.264Y-91.948
X80.264Y-94.488
X80.264Y-98.552
X81.788Y-79.248
X82.296Y-106.172
X84.328Y-79.248
X84.836Y-106.172
T2
X81.788Y-84.328
X83.312Y-98.552
X84.288Y-84.328
X84.328Y-91.714
X84.328Y-94.214
X85.812Y-98.552
X92.964Y-72.176
X92.964Y-74.676
X128.016Y-54.864
X128.016Y-57.404
X128.016Y-59.944
X128.016Y-62.484
X128.016Y-65.024
X128.016Y-67.564
X128.016Y-70.104
X128.016Y-72.644
X128.016Y-75.184
X128.016Y-77.724
X128.016Y-80.264
X128.016Y-82.804
X128.016Y-85.344
X128.016Y-87.884
X128.016Y-90.424
X128.016Y-92.964
X128.016Y-95.504
X128.016Y-98.044
X128.016Y-100.584
X153.412Y-98.041
X153.412Y-100.581
X153.416Y-54.864
X153.416Y-57.404
X153.416Y-59.944
X153.416Y-62.484
X153.416Y-65.024
X153.416Y-67.564
X153.416Y-70.104
X153.416Y-72.644
X153.416Y-75.184
X153.416Y-77.724
X153.416Y-80.264
X153.416Y-82.804
X153.416Y-85.344
X153.416Y-87.884
X153.416Y-90.424
X153.416Y-92.964
X153.416Y-95.504
T3
X79.288Y-114.482
X81.788Y-114.482
X84.288Y-114.482
X93.238Y-65.065
X95.504Y-64.008
X97.77Y-62.951
X105.704Y-59.121
X107.97Y-58.065
X110.236Y-57.008
X175.26Y-61.427
X176.824Y-116.006
X177.526Y-62.484
X179.324Y-116.006
X179.792Y-63.541
X181.824Y-116.006
X197.21Y-92.262
X197.21Y-94.762
X197.21Y-97.262
X197.21Y-99.762
T4
X107.188Y-116.84
X109.688Y-116.84
X160.624Y-73.176
X160.624Y-75.716
X161.036Y-84.328
X161.036Y-99.568
X163.576Y-84.328
X163.576Y-99.568
X166.116Y-84.328
X166.116Y-99.568
X168.656Y-84.328
X168.656Y-99.568
X171.196Y-84.328
X171.196Y-99.568
X173.736Y-84.328
X173.736Y-99.568
X176.276Y-84.328
X176.276Y-99.568
X178.696Y-84.328
X178.816Y-99.568
X182.204Y-73.176
X182.204Y-75.676
X185.444Y-83.48
X185.444Y-105.06
X187.944Y-83.48
X187.984Y-105.06
X198.81Y-82.062
X198.81Y-84.562
X198.81Y-107.462
X198.81Y-109.962
T5
X89.1Y-98.044
X89.1Y-103.044
X89.916Y-81.788
X89.916Y-86.788
X101.6Y-98.044
X101.6Y-103.044
X102.416Y-81.788
X102.416Y-86.788
X108.712Y-81.788
X108.712Y-86.788
X108.712Y-98.044
X108.712Y-103.044
X121.212Y-81.788
X121.212Y-86.788
X121.212Y-98.044
X121.212Y-103.044
M30
